<?xml version="1.0" encoding="iso-8859-1"?>
<!-- Generator: Adobe Illustrator 19.0.0, SVG Export Plug-In . SVG Version: 6.00 Build 0)  -->
<svg version="1.1" id="Capa_1" xmlns="http://www.w3.org/2000/svg" xmlns:xlink="http://www.w3.org/1999/xlink" x="0px" y="0px"
	 viewBox="0 0 512 512" style="enable-background:new 0 0 512 512;" xml:space="preserve">
<g>
	<g>
		<g>
			<path d="M256,0C114.844,0,0,114.844,0,256s114.844,256,256,256s256-114.844,256-256S397.156,0,256,0z M404.762,218.822
				l-7.126,60.564c-8.771,74.563-96.198,121.594-140.604,125.896c-46.469-4.302-133.896-51.333-142.667-125.896l-7.094-60.324
				c-21.605-26.654-21.947-57.714-21.938-59.134c0.031-4.865,3.354-9.083,8.063-10.271c4.74-1.177,9.646,0.958,11.969,5.24
				c0.302,0.5,9.615,15.771,37.177,15.771c14.229,0,20.104-3.917,27.542-8.875c8.323-5.552,18.688-12.458,39.375-12.458
				c23.014,0,37.724,8.326,46.542,19.969c8.818-11.643,23.527-19.969,46.542-19.969c20.688,0,31.052,6.906,39.375,12.458
				c7.438,4.958,13.313,8.875,27.542,8.875c27.563,0,36.875-15.271,37.26-15.927c2.438-4.135,7.417-6.229,12.042-4.948
				c4.646,1.26,7.906,5.396,7.906,10.208C426.667,160.549,426.132,192.048,404.762,218.822z"/>
			<path d="M256,230.909C244.536,245.229,224.335,256,197.823,256c-12.374,0-23.486-1.608-34.009-3.941
				c5.456,18.725,17.193,46.608,38.853,46.608c34.552,0,43.552-15.042,43.927-15.688c1.948-3.417,5.677-5.896,9.625-5.5
				c3.938,0.104,7.563,2.229,9.323,5.75c0.24,0.396,9.24,15.438,43.792,15.438c21.586,0,33.276-27.508,38.757-46.251
				c-10.022,2.212-21.165,3.585-33.913,3.585C287.665,256,267.464,245.229,256,230.909z"/>
		</g>
	</g>
</g>
<g>
</g>
<g>
</g>
<g>
</g>
<g>
</g>
<g>
</g>
<g>
</g>
<g>
</g>
<g>
</g>
<g>
</g>
<g>
</g>
<g>
</g>
<g>
</g>
<g>
</g>
<g>
</g>
<g>
</g>
</svg>
